<svg version="1.1" xmlns="http://www.w3.org/2000/svg" xmlns:xlink="http://www.w3.org/1999/xlink" width="732" height="442" viewBox="0 0 732 442"><defs/><g transform="matrix(1,0,0,1,0,0)"><g><g><g><path fill="none" stroke="#d3d3d3" paint-order="fill stroke markers" d=" M 0 0 L 1200 0" stroke-miterlimit="10" stroke-opacity="0.8" stroke-dasharray="5"/></g><g><path fill="none" stroke="#d3d3d3" paint-order="fill stroke markers" d=" M 0 0 L 0 800" stroke-miterlimit="10" stroke-opacity="0.8" stroke-dasharray="5"/></g></g><g id="_615D65C2-B639-49C7-904B-E9773BD55FC4" transform="matrix(1,0,0,1,201,249)"><g><path fill="none" stroke="none"/></g><g transform="matrix(0.9345794392523364,0,0,0.8771929824561403,0,0)"><g transform="matrix(1,0,0,1,0,0)"><path fill="none" stroke="#000000" id="_615D65C2-B639-49C7-904B-E9773BD55FC4?shapeType=BORDER&amp;renderType=STROKE" paint-order="fill stroke markers" d=" M 0 0 M 1.5 30 C 1.5 14.3 14.3 1.5 30 1.5 L 80 1.5 C 95.7 1.5 108.5 14.3 108.5 30 C 108.5 45.7 95.7 58.5 80 58.5 L 30 58.5 C 14.3 58.5 1.5 45.7 1.5 30 Z" stroke-miterlimit="10" stroke-width="1.5" stroke-dasharray=""/></g></g><g transform="matrix(1,0,0,1,36.39202880859375,19.5)"><text fill="#000000" stroke="none" font-family="Open Sans" font-size="10pt" font-style="normal" font-weight="normal" text-decoration="normal" x="13.60797119140625" y="8.8" text-anchor="middle" dominant-baseline="alphabetic">limit</text></g></g><g id="_6E884E5E-B5B1-4FDB-8C43-AC29941807C2" transform="matrix(1,0,0,1,417,341)"><g><path fill="none" stroke="none"/></g><g transform="matrix(0.9345794392523364,0,0,0.8771929824561403,0,0)"><g transform="matrix(1,0,0,1,0,0)"><path fill="none" stroke="#000000" id="_6E884E5E-B5B1-4FDB-8C43-AC29941807C2?shapeType=BORDER&amp;renderType=STROKE" paint-order="fill stroke markers" d=" M 0 0 M 1.5 30 C 1.5 14.3 14.3 1.5 30 1.5 L 80 1.5 C 95.7 1.5 108.5 14.3 108.5 30 C 108.5 45.7 95.7 58.5 80 58.5 L 30 58.5 C 14.3 58.5 1.5 45.7 1.5 30 Z" stroke-miterlimit="10" stroke-width="1.5" stroke-dasharray=""/></g></g><g transform="matrix(1,0,0,1,40.23493194580078,19.5)"><text fill="#000000" stroke="none" font-family="Open Sans" font-size="10pt" font-style="normal" font-weight="normal" text-decoration="normal" x="9.765068054199219" y="8.8" text-anchor="middle" dominant-baseline="alphabetic">var</text></g></g><g id="_E30008EF-DFD4-4E64-BECA-80768CFEF98B" transform="matrix(1,0,0,1,581,240)"><g><path fill="none" stroke="none"/></g><g transform="matrix(0.9345794392523364,0,0,0.8771929824561403,0,0)"><g transform="matrix(1,0,0,1,0,0)"><path fill="none" stroke="#000000" id="_E30008EF-DFD4-4E64-BECA-80768CFEF98B?shapeType=BORDER&amp;renderType=STROKE" paint-order="fill stroke markers" d=" M 0 0 M 1.5 30 C 1.5 14.3 14.3 1.5 30 1.5 L 80 1.5 C 95.7 1.5 108.5 14.3 108.5 30 C 108.5 45.7 95.7 58.5 80 58.5 L 30 58.5 C 14.3 58.5 1.5 45.7 1.5 30 Z" stroke-miterlimit="10" stroke-width="1.5" stroke-dasharray=""/></g></g><g transform="matrix(1,0,0,1,17.688400268554688,19.5)"><text fill="#000000" stroke="none" font-family="Open Sans" font-size="10pt" font-style="normal" font-weight="normal" text-decoration="normal" x="32.31159973144531" y="8.8" text-anchor="middle" dominant-baseline="alphabetic">entityType</text></g></g><g id="_9B8F41C9-AAED-4B02-BAE2-6DCFD1EFC536" transform="matrix(1,0,0,1,367,165)"><g><path fill="none" stroke="none"/></g><g transform="matrix(1,0,0,1,0,0)"><path fill="none" stroke="#000000" id="_9B8F41C9-AAED-4B02-BAE2-6DCFD1EFC536?shapeType=BORDER&amp;renderType=STROKE" paint-order="fill stroke markers" d=" M 0 0 L 100 0 L 100 50 L 0 50 L 0 0 Z Z" stroke-miterlimit="10" stroke-width="1.5" stroke-dasharray=""/></g><g transform="matrix(1,0,0,1,5.44708251953125,19.5)"><text fill="#000000" stroke="none" font-family="Open Sans" font-size="10pt" font-style="normal" font-weight="normal" text-decoration="normal" x="44.55291748046875" y="8.8" text-anchor="middle" dominant-baseline="alphabetic">varPercentage</text></g></g><g id="_B272CE13-43C2-4EFF-81A7-A56767044002" transform="matrix(1,0,0,1,499,69)"><g><path fill="none" stroke="none"/></g><g transform="matrix(1,0,0,1,0,0)"><path fill="none" stroke="#000000" id="_B272CE13-43C2-4EFF-81A7-A56767044002?shapeType=BORDER&amp;renderType=STROKE" paint-order="fill stroke markers" d=" M 0 0 L 100 0 L 100 50 L 0 50 L 0 0 Z Z" stroke-miterlimit="10" stroke-width="1.5" stroke-dasharray=""/></g><g transform="matrix(1,0,0,1,6.533897399902344,19.5)"><text fill="#000000" stroke="none" font-family="Open Sans" font-size="10pt" font-style="normal" font-weight="normal" text-decoration="normal" x="43.466102600097656" y="8.8" text-anchor="middle" dominant-baseline="alphabetic">thresholdRule</text></g></g><g id="_EFD381ED-5B7D-470C-9343-E6BDC299569F#_917DFF31-0110-4F31-B5F0-F6960DAFC8D5"><g><path fill="none" stroke="#000000" paint-order="fill stroke markers" d=" M 301 256.2289156626506 L 417 215" stroke-miterlimit="10" stroke-dasharray=""/></g><g transform="matrix(-0.9422544993680875,0.3348976835103444,-0.3348976835103444,-0.9422544993680875,301,256.2289156626506)"/><g transform="matrix(0.3348976835103443,0.9422544993680876,-0.9422544993680876,0.3348976835103443,415.32551158244826,210.28872750315955)"><path fill="#000000" stroke="#000000" paint-order="fill stroke markers" d=" M 10 15 L 0 15 L 5 0 Z" stroke-miterlimit="10" stroke-dasharray=""/></g><g transform="matrix(1,0,0,1,304.34897683510343,226.19191283764442)"/></g><g id="_EFD381ED-5B7D-470C-9343-E6BDC299569F#_DE9DDF78-195B-4C76-8EBD-3C2FDAEADF30"><g><path fill="none" stroke="#000000" paint-order="fill stroke markers" d=" M 463.47887323943667 165 L 549 119" stroke-miterlimit="10" stroke-dasharray=""/></g><g transform="matrix(-0.8806852439994903,0.47370191154518076,-0.47370191154518076,-0.8806852439994903,463.47887323943667,165)"/><g transform="matrix(0.4737019115451807,0.8806852439994903,-0.8806852439994903,0.4737019115451807,546.6314904422741,114.59657378000254)"><path fill="#000000" stroke="#000000" paint-order="fill stroke markers" d=" M 10 15 L 0 15 L 5 0 Z" stroke-miterlimit="10" stroke-dasharray=""/></g><g transform="matrix(1,0,0,1,468.21589235488847,133.1931475600051)"/></g><g id="_EFD381ED-5B7D-470C-9343-E6BDC299569F#_7601583E-5771-47B6-A5A1-2222EFA8B418"><g><path fill="none" stroke="#000000" paint-order="fill stroke markers" d=" M 459.89772727272725 341 L 424.10227272727275 215" stroke-miterlimit="10" stroke-dasharray=""/></g><g transform="matrix(0.2732770901939155,0.961935357482584,-0.961935357482584,0.2732770901939155,459.89772727272725,341)"/><g transform="matrix(0.961935357482584,-0.27327709019391566,0.27327709019391566,0.961935357482584,419.29259593985984,216.36638545096957)"><path fill="#000000" stroke="#000000" paint-order="fill stroke markers" d=" M 10 15 L 0 15 L 5 0 Z" stroke-miterlimit="10" stroke-dasharray=""/></g><g transform="matrix(1,0,0,1,433.72162630209857,275.26722909806085)"/></g><g id="_EFD381ED-5B7D-470C-9343-E6BDC299569F#_6F8F3A12-C1EF-4187-B77D-2FE2044252CF"><g><path fill="none" stroke="#000000" paint-order="fill stroke markers" d=" M 616.9589041095891 240 L 549 119" stroke-miterlimit="10" stroke-dasharray=""/></g><g transform="matrix(0.48969407317906655,0.8718943254163861,-0.8718943254163861,0.48969407317906655,616.9589041095891,240)"/><g transform="matrix(0.8718943254163861,-0.4896940731790665,0.4896940731790665,0.8718943254163861,544.6405283729181,121.44847036589533)"><path fill="#000000" stroke="#000000" paint-order="fill stroke markers" d=" M 10 15 L 0 15 L 5 0 Z" stroke-miterlimit="10" stroke-dasharray=""/></g><g transform="matrix(1,0,0,1,557.7189432541638,174.60305926820934)"/></g><g transform="matrix(1,0,0,1,201,249)"/><g transform="matrix(1,0,0,1,417,341)"/><g transform="matrix(1,0,0,1,581,240)"/><g transform="matrix(1,0,0,1,367,165)"/><g transform="matrix(1,0,0,1,499,69)"/></g></g></svg>